<svg width="40" height="40" viewBox="0 0 40 40" fill="none" xmlns="http://www.w3.org/2000/svg">
<g clip-path="url(#clip0)">
<path d="M39.6477 7.94702L27.5165 20.0001L39.6477 32.0531C39.867 31.5948 40 31.088 40 30.5469V9.45319C40 8.91202 39.867 8.40538 39.6477 7.94702Z" fill="black"/>
<path d="M36.4844 5.9375H3.51563C2.97446 5.9375 2.46782 6.07055 2.00946 6.28984L17.5144 21.7166C18.8853 23.0876 21.1147 23.0876 22.4856 21.7166L37.9906 6.28984C37.5322 6.07055 37.0256 5.9375 36.4844 5.9375Z" fill="black"/>
<path d="M0.352344 7.94702C0.133047 8.40538 0 8.91202 0 9.45319V30.5469C0 31.0881 0.133047 31.5948 0.352344 32.0531L12.4835 20.0001L0.352344 7.94702Z" fill="black"/>
<path d="M25.8594 21.6572L24.1427 23.3739C21.8584 25.6582 18.1415 25.6582 15.8572 23.3739L14.1406 21.6572L2.00946 33.7103C2.46782 33.9296 2.97446 34.0626 3.51563 34.0626H36.4844C37.0256 34.0626 37.5322 33.9296 37.9906 33.7103L25.8594 21.6572Z" fill="black"/>
</g>
<defs>
<clipPath id="clip0">
<rect width="40" height="40" fill="white"/>
</clipPath>
</defs>
</svg>
