<svg width="40" height="40" viewBox="0 0 40 40" fill="none" xmlns="http://www.w3.org/2000/svg">
<path d="M20 0C12.6481 0 6.66664 5.98149 6.66664 13.3334C6.66664 15.5404 7.21844 17.7287 8.26742 19.6696L19.2709 39.5703C19.4173 39.8356 19.6965 40 20 40C20.3035 40 20.5827 39.8356 20.7291 39.5703L31.7366 19.663C32.7816 17.7287 33.3334 15.5403 33.3334 13.3333C33.3334 5.98148 27.3519 0 20 0ZM20 20C16.3241 20 13.3334 17.0093 13.3334 13.3334C13.3334 9.65742 16.3241 6.66672 20 6.66672C23.6759 6.66672 26.6666 9.65742 26.6666 13.3334C26.6666 17.0093 23.6759 20 20 20Z" fill="black"/>
</svg>
